<svg width="20" height="20" viewBox="0 0 20 20" fill="none" xmlns="http://www.w3.org/2000/svg">
<g clip-path="url(#clip0_613_112)">
<path d="M6.2918 18.1202C13.8371 18.1202 17.9652 11.8675 17.9652 6.44677C17.9652 6.27099 17.9613 6.0913 17.9535 5.91552C18.7566 5.33477 19.4496 4.61543 20 3.7913C19.2521 4.12405 18.458 4.34137 17.6449 4.43583C18.5011 3.92264 19.1421 3.11645 19.4492 2.16669C18.6438 2.64402 17.763 2.98073 16.8445 3.1624C16.2257 2.50485 15.4075 2.06948 14.5164 1.9236C13.6253 1.77771 12.711 1.92943 11.9148 2.3553C11.1186 2.78117 10.4848 3.45747 10.1115 4.27965C9.73825 5.10182 9.64619 6.02407 9.84961 6.9038C8.21874 6.82196 6.62328 6.39831 5.16665 5.6603C3.71002 4.9223 2.42474 3.88642 1.39414 2.61982C0.870333 3.52292 0.710047 4.59159 0.945859 5.60863C1.18167 6.62567 1.79589 7.51476 2.66367 8.09521C2.01219 8.07452 1.37498 7.89912 0.804688 7.58349V7.63427C0.804104 8.58201 1.13175 9.50071 1.73192 10.2342C2.3321 10.9677 3.16777 11.4707 4.09687 11.6577C3.49338 11.8228 2.85999 11.8469 2.2457 11.728C2.50788 12.5431 3.01798 13.256 3.70481 13.7672C4.39164 14.2784 5.22093 14.5624 6.07695 14.5796C4.62369 15.7211 2.82848 16.3403 0.980469 16.3374C0.652739 16.3369 0.325333 16.3168 0 16.2772C1.87738 17.4817 4.06128 18.1214 6.2918 18.1202Z" fill="#1D2130"/>
</g>
<defs>
<clipPath id="clip0_613_112">
<rect width="20" height="20" fill="white" transform="translate(0 -0.00488281)"/>
</clipPath>
</defs>
</svg>
